<?xml version="1.0" encoding="utf-8"?><svg xmlns="http://www.w3.org/2000/svg" xmlns:xlink="http://www.w3.org/1999/xlink"><symbol viewBox="-5 -5 30 30" id="aircraft-take-off" xmlns="http://www.w3.org/2000/svg"><title>aircraft-take-off</title><path d="M19.87 6.453c.119.257.127 1.29-4.884 3.642l-4.913 2.306c-1.71.803-4.191 1.859-5.285 2.151-.766.204-1.497-.316-1.497-.316S1.085 12.261.499 11.817c-.585-.444-.535-.67.215-.91.467-.149 3.13.493 4.265.78A91.697 91.697 0 0 1 8.12 9.889c-1.396-1.033-4.008-2.962-4.841-3.55-.799-.565.01-.768.01-.768.368-.099 1.162-.228 1.562-.144 2.721.569 7.263 2.071 7.611 2.186a90.641 90.641 0 0 1 2.922-1.465c2.075-.974 4.327-.037 4.486.305z"/></symbol><symbol viewBox="-5 -5 30 30" id="chat" xmlns="http://www.w3.org/2000/svg"><title>chat</title><path d="M5.8 12.2V6H2C.9 6 0 6.9 0 8v6c0 1.1.9 2 2 2h1v3l3-3h5c1.1 0 2-.9 2-2v-1.82a.943.943 0 0 1-.2.021l-7-.001zM18 1H9c-1.1 0-2 .9-2 2v8h7l3 3v-3h1c1.1 0 2-.899 2-2V3c0-1.1-.9-2-2-2z"/></symbol><symbol viewBox="-5 -5 30 30" id="home" xmlns="http://www.w3.org/2000/svg"><title>home</title><path d="M18.672 11H17v6c0 .445-.194 1-1 1h-4v-6H8v6H4c-.806 0-1-.555-1-1v-6H1.328c-.598 0-.47-.324-.06-.748L9.292 2.22c.195-.202.451-.302.708-.312.257.01.513.109.708.312l8.023 8.031c.411.425.539.749-.059.749z"/></symbol><symbol viewBox="-5 -5 30 30" id="magnifying-glass" xmlns="http://www.w3.org/2000/svg"><title>magnifying-glass</title><path d="M17.545 15.467l-3.779-3.779a6.15 6.15 0 0 0 .898-3.21c0-3.417-2.961-6.377-6.378-6.377S2.1 4.87 2.1 8.287c0 3.416 2.961 6.377 6.377 6.377a6.15 6.15 0 0 0 3.115-.844l3.799 3.801a.953.953 0 0 0 1.346 0l.943-.943c.371-.371.236-.84-.135-1.211zM4.004 8.287c0-2.366 1.917-4.283 4.282-4.283s4.474 2.107 4.474 4.474c0 2.365-1.918 4.283-4.283 4.283s-4.473-2.109-4.473-4.474z"/></symbol><symbol viewBox="-5 -5 30 30" id="star" xmlns="http://www.w3.org/2000/svg"><title>star</title><path d="M10 1.3l2.388 6.722H18.8l-5.232 3.948 1.871 6.928L10 14.744l-5.438 4.154 1.87-6.928-5.233-3.948h6.412L10 1.3z"/></symbol></svg>